<svg width="180" height="25" viewBox="0 0 180 25" fill="none" xmlns="http://www.w3.org/2000/svg">
  <!-- Background rounded rectangle -->
  <rect width="180" height="25" rx="8" fill="#262b33"/>
  
  <!-- Stylized 'P' for Portfolio -->
  <path d="M8 5 L8 20 L11 20 L11 14 L16 14 C18.761 14 21 11.761 21 9 C21 6.239 18.761 4 16 4 L8 5 Z" fill="#6ee7b7"/>
  <path d="M11 7 L11 11 L15 11 C16.105 11 17 10.105 17 9 C17 7.895 16.105 7 15 7 L11 7 Z" fill="#262b33"/>
  
  <!-- Text "Portfolio" -->
  <text x="28" y="16" font-family="Arial, sans-serif" font-size="14" font-weight="600" fill="#6ee7b7">Portfolio</text>
  
  <!-- Separator -->
  <line x1="92" y1="8" x2="92" y2="17" stroke="#6ee7b7" stroke-width="1" opacity="0.5"/>
  
  <!-- Text "Blog" -->
  <text x="100" y="16" font-family="Arial, sans-serif" font-size="14" font-weight="400" fill="#ffffff">Blog</text>
  
  <!-- Accent dot -->
  <circle cx="170" cy="12.5" r="3" fill="#6ee7b7"/>
  
  <!-- Subtle gradient overlay -->
  <defs>
    <linearGradient id="grad1" x1="0%" y1="0%" x2="100%" y2="0%">
      <stop offset="0%" style="stop-color:#6ee7b7;stop-opacity:0.1" />
      <stop offset="100%" style="stop-color:#6ee7b7;stop-opacity:0" />
    </linearGradient>
  </defs>
  <rect width="180" height="25" rx="8" fill="url(#grad1)"/>
</svg>